<?xml version="1.0" standalone="no"?><!DOCTYPE svg PUBLIC "-//W3C//DTD SVG 1.1//EN" "http://www.w3.org/Graphics/SVG/1.1/DTD/svg11.dtd"><svg class="icon" width="200px" height="200.00px" viewBox="0 0 1024 1024" version="1.1" xmlns="http://www.w3.org/2000/svg"><path d="M955.786 24.5H67.714c-24.281 0-43.964 19.683-43.964 43.964v888.072c0 24.281 19.683 43.964 43.964 43.964h888.072c24.281 0 43.964-19.683 43.964-43.964V68.464c0-24.281-19.683-43.964-43.964-43.964zM208.399 91.841c0-2.721 0.202-5.388 0.575-7.99h605.553c0.373 2.602 0.575 5.269 0.575 7.99v337.505c0 27.412-19.683 49.633-43.964 49.633H252.363c-24.281 0-43.964-22.221-43.964-49.633V91.841z m732 810.691c0 21.328-17.289 38.617-38.617 38.617H121.718c-21.328 0-38.617-17.289-38.617-38.617V122.468c0-21.328 17.289-38.617 38.617-38.617h27.329v410.8c0 24.123 19.654 43.679 43.897 43.679h637.61c24.244 0 43.897-19.556 43.897-43.679v-410.8h27.329c21.328 0 38.617 17.289 38.617 38.617v780.064z"  /><path d="M723.609 391.704c15.933 0 28.85-12.917 28.85-28.85v-180.91c0-15.933-12.917-28.85-28.85-28.85s-28.85 12.917-28.85 28.85v180.911c0 15.933 12.917 28.849 28.85 28.849z"  /></svg>