<?xml version="1.0" standalone="no"?><!DOCTYPE svg PUBLIC "-//W3C//DTD SVG 1.1//EN" "http://www.w3.org/Graphics/SVG/1.1/DTD/svg11.dtd"><svg class="icon" width="200px" height="200.00px" viewBox="0 0 1024 1024" version="1.1" xmlns="http://www.w3.org/2000/svg"><path d="M281 1023c-50.7 0-98.3-19.7-134.2-55.6l-19.5-19.5c-74-74-74-194.4 0-268.4L636 170.8c25-25 58.1-38.7 93.5-38.7 35.3 0 68.5 13.7 93.5 38.7l11.4 11.4c51.5 51.5 51.5 135.4 0 186.9l-456 456c-15.6 15.6-40.9 15.6-56.6 0s-15.6-40.9 0-56.6l456-456c20.3-20.3 20.3-53.4 0-73.8l-11.4-11.4c-9.9-9.9-23-15.3-36.9-15.3-13.9 0-27 5.4-36.9 15.3L183.8 736.1c-42.8 42.8-42.8 112.4 0 155.2l19.5 19.5c20.7 20.7 48.3 32.1 77.6 32.1 29.3 0 56.9-11.4 77.6-32.1l514-514c31.6-31.6 49-73.6 49-118.3s-17.4-86.7-49-118.3l-26.9-26.9C780.5 68 674.3 68 609 133.3L160.7 581.7c-15.6 15.6-40.9 15.6-56.6 0s-15.6-40.9 0-56.6L552.5 76.7C599.2 30 661.3 4.3 727.4 4.3S855.6 30 902.3 76.7l26.9 26.9c46.7 46.7 72.5 108.8 72.5 174.9S976 406.7 929.2 453.4l-514 514c-35.9 35.9-83.5 55.6-134.2 55.6z"  /></svg>