<?xml version="1.0" standalone="no"?><!DOCTYPE svg PUBLIC "-//W3C//DTD SVG 1.1//EN" "http://www.w3.org/Graphics/SVG/1.1/DTD/svg11.dtd"><svg t="1585994828326" class="icon" viewBox="0 0 1024 1024" version="1.1" xmlns="http://www.w3.org/2000/svg" p-id="2176" xmlns:xlink="http://www.w3.org/1999/xlink" width="32" height="32"><defs><style type="text/css"></style></defs><path d="M763.1872 268.8l-413.696 365.4656L730.112 765.7472z" fill="#f4ea2a" p-id="2177" data-spm-anchor-id="a313x.7781069.0.i0" class=""></path><path d="M720.0768 772.5056c-2.56 0-5.0176-0.4096-7.4752-1.3312l-209.92-75.4688c-5.7344-2.048-8.704-8.3968-6.656-14.1312 2.048-5.7344 8.3968-8.704 14.1312-6.656l209.92 75.4688 25.1904-378.368c0.4096-6.0416 5.632-10.6496 11.776-10.24 6.0416 0.4096 10.6496 5.632 10.24 11.776l-25.1904 378.368c-0.512 6.9632-4.096 13.1072-9.9328 16.9984-3.6864 2.3552-7.8848 3.584-12.0832 3.584zM358.1952 473.7024c-3.7888 0-7.3728-1.9456-9.5232-5.4272-3.072-5.2224-1.4336-11.9808 3.7888-15.1552l390.2464-232.7552c7.0656-4.1984 15.7696-4.1984 22.8352 0.1024 6.9632 4.3008 11.0592 12.0832 10.4448 20.2752l-3.584 54.5792c-0.4096 6.0416-5.632 10.6496-11.776 10.24-6.0416-0.4096-10.6496-5.632-10.24-11.776l3.584-54.5792-390.144 232.96c-1.7408 1.1264-3.6864 1.536-5.632 1.536zM358.7072 649.0112c-1.3312 0-2.6624-0.2048-3.9936-0.7168L198.144 586.752c-7.8848-3.072-13.2096-10.24-13.9264-18.7392-0.7168-8.3968 3.3792-16.384 10.6496-20.6848l94.3104-56.32c5.2224-3.072 11.9808-1.4336 15.1552 3.7888 3.072 5.2224 1.4336 11.9808-3.7888 15.1552l-94.3104 56.32 156.5696 61.44c5.632 2.2528 8.4992 8.6016 6.2464 14.336-1.7408 4.3008-5.9392 6.9632-10.3424 6.9632z" fill="#1296db" p-id="2178" data-spm-anchor-id="a313x.7781069.0.i1" class=""></path><path d="M435.0976 806.6048c-2.4576 0-5.0176-0.4096-7.5776-1.3312-8.9088-3.1744-14.6432-11.264-14.6432-20.6848l-0.2048-116.736c0-4.608 1.536-9.1136 4.3008-12.8l327.3728-427.008c3.6864-4.8128 10.6496-5.7344 15.4624-2.048 4.8128 3.6864 5.7344 10.6496 2.048 15.4624L434.7904 668.16l0.2048 116.4288 41.984-51.0976c3.8912-4.7104 10.8544-5.4272 15.4624-1.536 4.7104 3.8912 5.4272 10.8544 1.536 15.4624l-41.984 51.0976c-4.3008 5.2224-10.4448 8.0896-16.896 8.0896z m-0.1024-22.016z m-0.1024 0zM680.5504 675.4304h-0.7168c-4.1984-0.4096-7.3728-4.1984-6.9632-8.3968l2.6624-27.8528c0.4096-4.1984 4.1984-7.3728 8.3968-6.9632 4.1984 0.4096 7.3728 4.1984 6.9632 8.3968l-2.6624 27.8528c-0.4096 3.9936-3.7888 6.9632-7.68 6.9632zM686.592 612.864h-0.7168c-4.1984-0.4096-7.3728-4.1984-6.9632-8.3968l10.4448-108.2368c0.4096-4.1984 4.1984-7.3728 8.3968-6.9632 4.1984 0.4096 7.3728 4.1984 6.9632 8.3968L694.272 605.7984c-0.4096 3.9936-3.7888 7.0656-7.68 7.0656z" fill="#1296db" p-id="2179" data-spm-anchor-id="a313x.7781069.0.i2" class=""></path></svg>