<?xml version="1.0" standalone="no"?><!DOCTYPE svg PUBLIC "-//W3C//DTD SVG 1.1//EN" "http://www.w3.org/Graphics/SVG/1.1/DTD/svg11.dtd"><svg class="icon" width="200px" height="200.00px" viewBox="0 0 1024 1024" version="1.1" xmlns="http://www.w3.org/2000/svg"><path d="M1010.176 252.416L758.272 12.8c-6.144-5.632-13.312-8.704-21.504-8.704h-465.92c-47.616 0-86.016 38.4-86.016 86.016v177.152H89.6C42.496 267.264 4.608 305.152 4.608 352.256v439.296c0 47.104 37.888 84.992 84.992 84.992h95.232v57.344c0 47.616 38.4 86.016 86.016 86.016h662.016c47.616 0 86.016-38.4 86.016-86.016V274.432c0-8.192-3.072-16.384-8.704-22.016z m-257.024-159.232l167.424 158.72-167.424-4.608V93.184z m-663.552 721.92c-12.8 0-23.552-10.752-23.552-23.552V352.256c0-12.8 10.752-23.552 23.552-23.552h434.688c12.8 0 23.552 10.752 23.552 23.552v439.296c0 12.8-10.752 23.552-23.552 23.552H89.6zM957.44 933.888c0 13.312-11.264 24.576-24.576 24.576H270.848c-13.312 0-24.576-11.264-24.576-24.576v-57.344h278.016c47.104 0 84.992-37.888 84.992-84.992v-53.248h138.752c16.896 0 30.72-13.824 30.72-30.72s-13.824-30.72-30.72-30.72H609.28v-81.92h138.752c16.896 0 30.72-13.824 30.72-30.72s-13.824-30.72-30.72-30.72H609.28v-81.92h138.752c16.896 0 30.72-13.824 30.72-30.72s-13.824-30.72-30.72-30.72H609.28v-37.888c0-47.104-37.888-84.992-84.992-84.992H246.272V90.112c0-13.312 11.264-24.576 24.576-24.576h420.864v211.968c0 16.896 12.8 30.208 29.696 30.72l236.032 6.144v619.52z" fill="#646464" /><path d="M454.144 477.184H361.472l-47.104 61.952-48.64-61.952H172.032L258.048 573.44l-94.72 104.448h94.72L312.32 613.376l54.272 64.512h95.744L368.64 574.464z" fill="#646464" /></svg>