<?xml version="1.0" standalone="no"?><!DOCTYPE svg PUBLIC "-//W3C//DTD SVG 1.1//EN" "http://www.w3.org/Graphics/SVG/1.1/DTD/svg11.dtd"><svg class="icon" width="200px" height="199.80px" viewBox="0 0 1025 1024" version="1.1" xmlns="http://www.w3.org/2000/svg"><path d="M800.089863 672.179663c-51.133994 0-96.674327 23.978238-125.967872 61.313309l-300.808123-163.92412c6.886158-17.850386 10.669502-37.230689 10.669502-57.480843 0-15.161009-2.111182-29.826713-6.052123-43.721831l295.749678-178.266444c29.276148 37.708596 75.015013 62.019424 126.408938 62.019424 88.41278 0 160.129518-71.828284 160.129518-160.092678 0-88.392313-71.716738-159.969875-160.129518-159.969875-88.349332 0-160.003646 71.576539-160.003646 159.969875 0 12.747937 1.503309 25.14998 4.326746 37.044438l-298.245641 179.773846c-29.37746-34.697884-73.271215-56.725607-122.3104-56.725607-88.347285 0-160.000576 71.574492-160.000576 159.967828 0 88.261323 71.654314 160.091654 160.000576 160.091654 41.841928 0 79.938375-16.096355 108.46952-42.40068l311.133778 169.555644c-2.207377 10.590704-3.372979 21.564143-3.372979 32.811841 0 88.267463 71.654314 160.091654 160.003646 160.091654 88.41278 0 160.129518-71.825214 160.129518-160.091654C960.219382 743.755178 888.502643 672.179663 800.089863 672.179663zM800.089863 96.071571c53.021061 0 96.101248 43.005483 96.101248 95.955932 0 52.945332-43.080187 96.081804-96.101248 96.081804-52.896211 0-95.975376-43.136472-95.975376-96.081804C704.114488 139.077053 747.193652 96.071571 800.089863 96.071571zM127.88257 512.088009c0-52.949426 43.078141-95.954908 95.974352-95.954908 53.022084 0 96.101248 43.004459 96.101248 95.954908 0 52.947379-43.080187 96.079758-96.101248 96.079758C170.960711 608.167766 127.88257 565.035388 127.88257 512.088009zM800.089863 928.225202c-52.896211 0-95.975376-43.129309-95.975376-96.078734 0-52.946356 43.079164-95.955932 95.975376-95.955932 53.021061 0 96.101248 43.008553 96.101248 95.955932C896.191112 885.095894 853.110924 928.225202 800.089863 928.225202z" /></svg>