<?xml version="1.0" standalone="no"?><!DOCTYPE svg PUBLIC "-//W3C//DTD SVG 1.1//EN" "http://www.w3.org/Graphics/SVG/1.1/DTD/svg11.dtd"><svg class="icon" width="200px" height="200.00px" viewBox="0 0 1024 1024" version="1.1" xmlns="http://www.w3.org/2000/svg"><path d="M585.142857 244.610612a93.100408 93.100408 0 1 1 93.100408-93.100408A93.204898 93.204898 0 0 1 585.142857 244.610612z m0-144.404898a51.30449 51.30449 0 1 0 51.30449 51.30449A51.40898 51.40898 0 0 0 585.142857 100.205714zM888.163265 735.712653a93.100408 93.100408 0 1 1 93.100408-93.100408A93.204898 93.204898 0 0 1 888.163265 735.712653z m0-144.509388a51.30449 51.30449 0 1 0 51.30449 51.30449 51.40898 51.40898 0 0 0-51.30449-51.2zM517.22449 965.590204A77.426939 77.426939 0 1 1 594.651429 888.163265a77.531429 77.531429 0 0 1-77.426939 77.426939z m0-113.162449A35.63102 35.63102 0 1 0 552.85551 888.163265a35.73551 35.73551 0 0 0-35.63102-35.63102zM135.836735 767.059592a93.100408 93.100408 0 1 1 93.100408-93.100408A93.204898 93.204898 0 0 1 135.836735 767.059592z m0-144.509388a51.30449 51.30449 0 1 0 51.304489 51.30449 51.40898 51.40898 0 0 0-51.304489-51.2zM193.306122 338.651429A77.426939 77.426939 0 1 1 270.733061 261.22449a77.531429 77.531429 0 0 1-77.426939 77.426939z m0-113.162449A35.63102 35.63102 0 1 0 228.937143 261.22449a35.73551 35.73551 0 0 0-35.631021-35.631021z"  /><path d="M861.204898 596.532245a20.897959 20.897959 0 0 1-18.181225-10.44898L626.938776 202.292245a20.897959 20.897959 0 0 1 36.362448-20.897959l216.084898 384a20.897959 20.897959 0 0 1-18.181224 31.346938zM249.835102 246.491429a20.897959 20.897959 0 0 1-7.209796-40.542041l267.389388-98.429388A20.897959 20.897959 0 0 1 524.434286 146.285714L257.044898 245.133061a20.897959 20.897959 0 0 1-7.209796 1.358368zM135.000816 622.654694h-3.239183a20.897959 20.897959 0 0 1-17.449796-23.823674l41.795918-271.673469a20.897959 20.897959 0 1 1 41.795918 6.373878l-41.795918 271.673469a20.897959 20.897959 0 0 1-21.106939 17.449796zM458.814694 894.328163a20.897959 20.897959 0 0 1-11.075918-3.134694l-250.775511-156.734693a20.897959 20.897959 0 0 1 22.465306-35.526531l250.775511 156.734694a20.897959 20.897959 0 0 1-11.075919 38.661224zM571.768163 894.328163A20.897959 20.897959 0 0 1 559.438367 856.816327l242.311837-177.632654a20.897959 20.897959 0 1 1 24.764082 33.436735l-242.416327 177.632653a20.897959 20.897959 0 0 1-12.329796 4.075102zM521.613061 852.532245h-2.194285a20.897959 20.897959 0 0 1-18.599184-22.987755l62.693877-606.040817a20.897959 20.897959 0 0 1 41.795919 4.284082l-62.693878 606.040816a20.897959 20.897959 0 0 1-21.002449 18.703674zM176.692245 624.84898a10.44898 10.44898 0 0 1-7.732245-17.554286l365.714286-399.36a10.44898 10.44898 0 0 1 15.36 14.106122l-365.714286 399.36a10.44898 10.44898 0 0 1-7.627755 3.448164z"  /><path d="M458.814694 862.981224a20.897959 20.897959 0 0 1-19.330612-12.852244L213.159184 310.125714a20.897959 20.897959 0 1 1 38.556734-16.195918l226.429388 540.003265a20.897959 20.897959 0 0 1-19.226122 28.943674zM814.08 648.777143a20.897959 20.897959 0 0 1-11.493878-3.448163l-564.244898-370.938776A20.897959 20.897959 0 1 1 261.22449 239.490612l564.244898 370.938776a20.897959 20.897959 0 0 1-11.493878 38.347755z"  /><path d="M208.039184 685.348571a10.44898 10.44898 0 0 1-0.522449-20.897959l606.040816-31.346939a10.44898 10.44898 0 0 1 1.044898 20.89796l-606.040816 31.346938z"  /></svg>