<?xml version="1.0" standalone="no"?><!DOCTYPE svg PUBLIC "-//W3C//DTD SVG 1.1//EN" "http://www.w3.org/Graphics/SVG/1.1/DTD/svg11.dtd"><svg class="icon" width="200px" height="200.00px" viewBox="0 0 1024 1024" version="1.1" xmlns="http://www.w3.org/2000/svg"><path d="M799.7 639.3c-50.6 0-95.2 24-124.5 60.7L377.8 521.5c3.7-13.5 6.3-27.4 6.3-42.1 0-14.7-2.6-28.6-6.3-42.1L675.2 259c29.3 36.7 73.9 60.7 124.5 60.7 88.3 0 159.8-71.6 159.8-159.8C959.5 71.6 887.9 0 799.7 0S639.9 71.6 639.9 159.8c0 14.7 2.6 28.6 6.3 42.1L348.8 380.3c-29.3-36.7-73.9-60.7-124.5-60.7-88.3 0-159.8 71.6-159.8 159.8 0 88.3 71.6 159.8 159.8 159.8 50.6 0 95.2-24 124.5-60.7L646.2 757c-3.7 13.5-6.3 27.4-6.3 42.1 0 88.3 71.6 159.8 159.8 159.8s159.8-71.6 159.8-159.8c0-88.3-71.6-159.8-159.8-159.8z m0-575.4c52.9 0 95.9 43 95.9 95.9s-43 95.9-95.9 95.9-95.9-43-95.9-95.9 43-95.9 95.9-95.9zM224.3 575.4c-52.9 0-95.9-43-95.9-95.9s43-95.9 95.9-95.9 95.9 43 95.9 95.9-43 95.9-95.9 95.9zM799.7 895c-52.9 0-95.9-43-95.9-95.9 0-52.9 43-95.9 95.9-95.9s95.9 43 95.9 95.9c0 52.9-43 95.9-95.9 95.9z" /></svg>