<?xml version="1.0" standalone="no"?><!DOCTYPE svg PUBLIC "-//W3C//DTD SVG 1.1//EN" "http://www.w3.org/Graphics/SVG/1.1/DTD/svg11.dtd"><svg class="icon" width="200px" height="200.00px" viewBox="0 0 1024 1024" version="1.1" xmlns="http://www.w3.org/2000/svg"><path d="M781.6 343.8L562.5 168.5c-6.3-5-7.3-14.2-2.3-20.5 5-6.3 14.2-7.3 20.5-2.3L800.2 321c10.8 8.6 4.7 25.9-9.1 25.9h-0.4c-3.3 0.1-6.5-1.1-9.1-3.1zM244.2 343.8l219.1-175.3c6.3-5 7.3-14.2 2.3-20.5-5-6.3-14.2-7.3-20.5-2.3L225.6 321c-10.8 8.6-4.7 25.9 9.1 25.9h0.4c3.3 0.1 6.6-1.1 9.1-3.1zM554.9 106c0 23.2-18.8 42.1-42 42.1s-42.1-18.8-42.1-42.1c0-23.2 18.8-42.1 42.1-42.1 23.2 0 42 18.8 42 42.1zM915 363.8H110.8c-25.2 0-45.6 20.4-45.6 45.6v505.3c0 25.2 20.4 45.6 45.6 45.6H915c25.2 0 45.6-20.4 45.6-45.6V409.3c0-25.1-20.4-45.5-45.6-45.5zM933 890c0 25.2-20.4 45.6-45.6 45.6h-749c-25.2 0-45.6-20.4-45.6-45.6V433.9c0-25.2 20.4-45.6 45.6-45.6h748.9c25.2 0 45.6 20.4 45.6 45.6V890z"  /><path d="M844.3 430.7H181.5c-25.2 0-45.6 20.4-45.6 45.6v371.4c0 25.2 20.4 45.6 45.6 45.6h662.8c25.2 0 45.6-20.4 45.6-45.6V476.3c0-25.2-20.4-45.6-45.6-45.6z m-498.1 51.1h333.4c12.9 0 23.3 10.4 23.3 23.3s-10.4 23.3-23.3 23.3H346.2c-12.9 0-23.3-10.4-23.3-23.3s10.4-23.3 23.3-23.3z m436.7 337.1c0 12.9-10.4 23.3-23.3 23.3H266.2c-12.9 0-23.3-10.4-23.3-23.3s10.4-23.3 23.3-23.3h493.4c12.9 0 23.3 10.4 23.3 23.3z m0-104.6c0 12.9-10.4 23.3-23.3 23.3H266.2c-12.9 0-23.3-10.4-23.3-23.3s10.4-23.3 23.3-23.3h493.4c12.9 0 23.3 10.4 23.3 23.3z m0-104.6c0 12.9-10.4 23.3-23.3 23.3H266.2c-12.9 0-23.3-10.4-23.3-23.3s10.4-23.3 23.3-23.3h493.4c12.9 0 23.3 10.4 23.3 23.3z"  /></svg>