<?xml version="1.0" standalone="no"?><!DOCTYPE svg PUBLIC "-//W3C//DTD SVG 1.1//EN" "http://www.w3.org/Graphics/SVG/1.1/DTD/svg11.dtd"><svg t="1586017310829" class="icon" viewBox="0 0 1024 1024" version="1.1" xmlns="http://www.w3.org/2000/svg" p-id="2545" xmlns:xlink="http://www.w3.org/1999/xlink" width="32" height="32"><defs><style type="text/css"></style></defs><path d="M530.1248 534.7328v241.152a48.8448 48.8448 0 0 0 48.64 48.64c26.624-9.216 79.0528-27.8528 129.6384-50.176 13.1072-5.8368 26.0096-13.0048 51.2-27.3408a117.4528 117.4528 0 0 0 40.96-31.4368 89.6 89.6 0 0 0 13.2096-24.8832v-430.08a48.8448 48.8448 0 0 0-48.64-48.64c-10.24 1.7408-24.9856 4.608-42.5984 9.4208a230.5024 230.5024 0 0 1-192.4096 313.344zM252.928 747.008c25.7024 14.336 38.6048 21.6064 51.2 27.3408 50.5856 22.3232 103.0144 40.96 129.6384 50.176a48.8448 48.8448 0 0 0 48.64-48.64V534.3232a230.6048 230.6048 0 0 1-189.44-312.2176 454.9632 454.9632 0 0 0-46.2848-10.24 48.8448 48.8448 0 0 0-48.64 48.64v430.08a89.6 89.6 0 0 0 13.2096 24.8832 117.4528 117.4528 0 0 0 41.6768 31.5392z" fill="#FFBA00" p-id="2546"></path><path d="M839.68 269.2096a47.9232 47.9232 0 0 1 0.9216 8.6016v430.08a89.7024 89.7024 0 0 1-13.2096 24.8832 117.3504 117.3504 0 0 1-40.96 31.4368c-24.7808 13.824-37.5808 20.992-50.2784 26.7264 13.5168 0 53.6576 0.8192 92.9792-1.8432a61.44 61.44 0 0 0 35.5328-12.1856A58.2656 58.2656 0 0 0 883.4048 747.52V317.44A48.64 48.64 0 0 0 839.68 269.2096zM152.3712 777.1136a61.44 61.44 0 0 0 35.5328 12.1856c39.3216 2.6624 79.4624 2.1504 92.9792 1.8432-12.6976-5.7344-25.4976-12.9024-50.2784-26.7264a117.3504 117.3504 0 0 1-40.96-31.4368 89.6 89.6 0 0 1-13.2096-24.8832v-430.08a47.9232 47.9232 0 0 1 0.9216-8.6016A48.64 48.64 0 0 0 133.632 317.44v430.08a58.2656 58.2656 0 0 0 18.7392 29.5936z" fill="#FFBA00" p-id="2547"></path><path d="M544.3584 347.648a204.8 204.8 0 0 0-14.336 34.4064v152.6784a230.5024 230.5024 0 0 0 193.2288-313.6512c-55.6032 15.0528-138.0352 49.152-178.8928 126.5664z" fill="#FFBA00" p-id="2548"></path><path d="M544.3584 347.648a204.8 204.8 0 0 0-14.336 34.4064v152.6784a230.5024 230.5024 0 0 0 193.2288-313.6512c-55.6032 15.0528-138.0352 49.152-178.8928 126.5664z" fill="#FEC744" p-id="2549"></path><path d="M482.9184 534.3232V382.0544a204.8 204.8 0 0 0-14.336-34.4064c-39.936-75.6736-119.7056-109.9776-175.2064-125.5424a230.6048 230.6048 0 0 0 189.44 312.2176z" fill="#FFBA00" p-id="2550"></path><path d="M482.9184 534.3232V382.0544a204.8 204.8 0 0 0-14.336-34.4064c-39.936-75.6736-119.7056-109.9776-175.2064-125.5424a230.6048 230.6048 0 0 0 189.44 312.2176z" fill="#FEC744" p-id="2551"></path></svg>