<?xml version="1.0" standalone="no"?><!DOCTYPE svg PUBLIC "-//W3C//DTD SVG 1.1//EN" "http://www.w3.org/Graphics/SVG/1.1/DTD/svg11.dtd"><svg class="icon" width="200px" height="200.00px" viewBox="0 0 1024 1024" version="1.1" xmlns="http://www.w3.org/2000/svg"><path d="M288.170667 416h447.658666a32 32 0 0 0 0-64H288.170667c-17.685333 0-31.978667 14.314667-31.978667 32s14.293333 32 31.978667 32zM416.064 192h191.872a95.957333 95.957333 0 0 0 95.914667-95.978667c0-53.034667-42.965333-96-95.914667-96h-191.872a95.957333 95.957333 0 0 0-95.914667 96A95.957333 95.957333 0 0 0 416.064 192z m0-127.978667h191.872a32 32 0 0 1 0 64h-191.872a32 32 0 0 1 0-64z m351.744 511.957334a32 32 0 0 0-31.978667-31.978667H288.170667a31.957333 31.957333 0 1 0 0 63.978667h447.658666a32 32 0 0 0 31.978667-32z m95.936-511.957334h-95.936v64h95.936a32 32 0 0 1 31.978667 32v767.957334a32 32 0 0 1-31.978667 32H160.256a32 32 0 0 1-31.978667-32V160.021333a32 32 0 0 1 31.978667-32h95.936v-64H160.256a95.978667 95.978667 0 0 0-95.914667 96v767.957334c0 53.034667 42.965333 96 95.914667 96h703.488a95.957333 95.957333 0 0 0 95.914667-96V160.021333c0-53.013333-42.965333-96-95.914667-96z m-575.573333 671.957334c-17.685333 0-31.978667 14.314667-31.978667 32s14.293333 32 31.978667 32h255.808a32 32 0 0 0 0-64H288.170667z" /></svg>