<?xml version="1.0" standalone="no"?><!DOCTYPE svg PUBLIC "-//W3C//DTD SVG 1.1//EN" "http://www.w3.org/Graphics/SVG/1.1/DTD/svg11.dtd"><svg class="icon" width="200px" height="200.00px" viewBox="0 0 1024 1024" version="1.1" xmlns="http://www.w3.org/2000/svg"><path d="M285 292h386c6.6 0 12-5.2 12-11.6v-40.7c0-6.4-5.4-11.6-12-11.6H285c-6.6 0-12 5.2-12 11.6v40.7c0 6.4 5.4 11.6 12 11.6zM273 440.4c0 6.4 5.4 11.6 12 11.6h230c6.6 0 12-5.2 12-11.6v-40.7c0-6.4-5.4-11.6-12-11.6H285c-6.6 0-12 5.2-12 11.6v40.7zM722.1 774.5c15.2-25.3 23.9-54.8 23.9-86.5 0-92.8-75.2-168-168-168s-168 75.2-168 168 75.2 168 168 168c37.3 0 71.7-12.1 99.6-32.7l91.1 91.1c4.7 4.7 12.3 4.7 17 0l29.7-29.7c4.7-4.7 4.7-12.3 0-17l-93.3-93.2zM474 688c0-57.3 46.7-104 104-104s104 46.7 104 104-46.7 104-104 104-104-46.7-104-104z"  /><path d="M798.5 61.5h-640c-17.6 0-32 14.4-32 32v832c0 17.6 14.4 32 32 32H491c8.8 0 16-7.2 16-16v-40c0-8.8-7.2-16-16-16H198.5v-752h560V542c0 8.8 7.2 16 16 16h40c8.8 0 16-7.2 16-16V93.5c0-17.6-14.4-32-32-32z"  /></svg>