<?xml version="1.0" standalone="no"?><!DOCTYPE svg PUBLIC "-//W3C//DTD SVG 1.1//EN" "http://www.w3.org/Graphics/SVG/1.1/DTD/svg11.dtd"><svg class="icon" width="200px" height="200.00px" viewBox="0 0 1024 1024" version="1.1" xmlns="http://www.w3.org/2000/svg"><path d="M204.8 0h477.866667l273.066666 273.066667v614.4c0 75.093333-61.44 136.533333-136.533333 136.533333H204.8c-75.093333 0-136.533333-61.44-136.533333-136.533333V136.533333C68.266667 61.44 129.706667 0 204.8 0z m477.866667 730.453333c20.48 0 68.266667 0 68.266666-47.786666 0-20.48-6.826667-47.786667-68.266666-47.786667-27.306667 0-54.613333 6.826667-81.92 6.826667-34.133333-27.306667-68.266667-61.44-88.746667-102.4 20.48-75.093333 20.48-122.88 6.826667-150.186667-6.826667-6.826667-20.48-13.653333-34.133334-13.653333-20.48 0-34.133333 6.826667-40.96 20.48-20.48 40.96 13.653333 116.053333 27.306667 150.186666-20.48 54.613333-40.96 109.226667-68.266667 163.84C273.066667 764.586667 273.066667 798.72 273.066667 812.373333c0 13.653333 6.826667 27.306667 20.48 34.133334 6.826667 6.826667 13.653333 6.826667 20.48 6.826666 34.133333 0 68.266667-34.133333 116.053333-109.226666 54.613333-20.48 102.4-40.96 157.013333-47.786667 27.306667 20.48 61.44 34.133333 95.573334 34.133333zM491.52 416.426667c6.826667 20.48 6.826667 47.786667 0 68.266666-13.653333-20.48-13.653333-40.96-13.653333-68.266666h13.653333z m-177.493333 395.946666c13.653333-20.48 27.306667-27.306667 47.786666-40.96-13.653333 20.48-27.306667 34.133333-47.786666 40.96z m184.32-204.8c13.653333 20.48 34.133333 47.786667 54.613333 68.266667H546.133333c-27.306667 6.826667-61.44 13.653333-88.746666 27.306667 13.653333-34.133333 27.306667-61.44 40.96-95.573334z m177.493333 68.266667c27.306667 0 34.133333 6.826667 34.133333 13.653333-6.826667 0-20.48 6.826667-27.306666 0-13.653333 0-27.306667-6.826667-40.96-13.653333h34.133333z" fill="#777777" /><path d="M682.666667 0l273.066666 273.066667h-204.8c-40.96 0-68.266667-27.306667-68.266666-68.266667V0z" fill="#e0e0e0" /></svg>