<?xml version="1.0" standalone="no"?><!DOCTYPE svg PUBLIC "-//W3C//DTD SVG 1.1//EN" "http://www.w3.org/Graphics/SVG/1.1/DTD/svg11.dtd"><svg class="icon" width="200px" height="200.00px" viewBox="0 0 1024 1024" version="1.1" xmlns="http://www.w3.org/2000/svg"><path d="M827.733333 699.733333a25.6 25.6 0 0 1 51.2 0v153.6c0 37.704533-30.562133 68.266667-68.266666 68.266667H213.333333c-37.704533 0-68.266667-30.562133-68.266666-68.266667V170.666667c0-37.704533 30.562133-68.266667 68.266666-68.266667h597.333334c37.704533 0 68.266667 30.562133 68.266666 68.266667v375.466666a25.6 25.6 0 0 1-51.2 0V170.666667a17.066667 17.066667 0 0 0-17.066666-17.066667H213.333333a17.066667 17.066667 0 0 0-17.066666 17.066667v682.666666a17.066667 17.066667 0 0 0 17.066666 17.066667h597.333334a17.066667 17.066667 0 0 0 17.066666-17.066667v-153.6z m-355.421866-41.527466l-108.608-108.612267a25.6 25.6 0 1 1 36.202666-36.202667l90.5088 90.5088 187.050667-187.050666a25.6 25.6 0 1 1 36.206933 36.202666l-205.154133 205.154134a25.6 25.6 0 0 1-36.206933 0z" /></svg>