<?xml version="1.0" standalone="no"?><!DOCTYPE svg PUBLIC "-//W3C//DTD SVG 1.1//EN" "http://www.w3.org/Graphics/SVG/1.1/DTD/svg11.dtd"><svg class="icon" width="200px" height="200.00px" viewBox="0 0 1024 1024" version="1.1" xmlns="http://www.w3.org/2000/svg"><path d="M847.644444 1024H150.755556c-48.355556-5.688889-88.177778-45.511111-93.866667-93.866667V93.866667C62.577778 45.511111 102.4 8.533333 150.755556 0h466.488888l327.111112 278.755556v651.377777c-8.533333 48.355556-48.355556 88.177778-96.711112 93.866667z m0-696.888889h-184.888888c-25.6-2.844444-42.666667-22.755556-45.511112-45.511111V93.866667H196.266667c-25.6 0-45.511111 19.911111-45.511111 45.511111v745.244444c5.688889 22.755556 22.755556 42.666667 45.511111 45.511111h605.866666c25.6-2.844444 45.511111-22.755556 45.511111-45.511111V327.111111zM475.022222 651.377778h-93.866666v139.377778c0 25.6-19.911111 45.511111-45.511112 45.511111s-45.511111-19.911111-45.511111-45.511111V327.111111H483.555556c48.355556-2.844444 96.711111 11.377778 133.688888 42.666667 34.133333 28.444444 51.2 71.111111 48.355556 113.777778 2.844444 48.355556-14.222222 93.866667-48.355556 125.155555-39.822222 31.288889-91.022222 45.511111-142.222222 42.666667z m76.8-238.933334c-19.911111-22.755556-48.355556-39.822222-76.8-39.822222h-93.866666v233.244445h93.866666c31.288889-2.844444 59.733333-17.066667 76.8-42.666667 19.911111-19.911111 31.288889-51.2 28.444445-79.644444 2.844444-25.6-5.688889-54.044444-28.444445-71.111112z" fill="#666666" /></svg>