<?xml version="1.0" standalone="no"?><!DOCTYPE svg PUBLIC "-//W3C//DTD SVG 1.1//EN" "http://www.w3.org/Graphics/SVG/1.1/DTD/svg11.dtd"><svg class="icon" width="200px" height="200.00px" viewBox="0 0 1024 1024" version="1.1" xmlns="http://www.w3.org/2000/svg"><path d="M384.1 479.5c0-14.7-2.6-28.6-6.3-42.1L675.2 259c29.3 36.7 73.9 60.7 124.5 60.7 88.3 0 159.8-71.6 159.8-159.8S887.9 0 799.7 0 639.9 71.6 639.9 159.8c0 14.7 2.6 28.6 6.3 42.1L348.8 380.3c-29.3-36.7-73.9-60.7-124.5-60.7-88.3 0-159.8 71.6-159.8 159.8s71.6 159.8 159.8 159.8c50.6 0 95.2-24 124.5-60.7L519 680.6l32.8-54.8-174-104.3c3.7-13.5 6.3-27.4 6.3-42zM799.7 63.9c52.9 0 95.9 43 95.9 95.9s-43 95.9-95.9 95.9-95.9-43-95.9-95.9 43-95.9 95.9-95.9zM224.3 575.4c-52.9 0-95.9-43-95.9-95.9s43-95.9 95.9-95.9 95.9 43 95.9 95.9-43 95.9-95.9 95.9zM904.9 648.7L799.7 753.9 694.4 648.7l-45.2 45.1 105.3 105.3-105.3 105.3 45.2 45.2 105.3-105.3 105.2 105.3 45.2-45.2-105.2-105.3 105.2-105.3z" /></svg>