<?xml version="1.0" standalone="no"?><!DOCTYPE svg PUBLIC "-//W3C//DTD SVG 1.1//EN" "http://www.w3.org/Graphics/SVG/1.1/DTD/svg11.dtd"><svg class="icon" width="200px" height="200.00px" viewBox="0 0 1024 1024" version="1.1" xmlns="http://www.w3.org/2000/svg"><path d="M472 269.822l-60.268 78.53c-13.45 17.526-38.56 20.83-56.085 7.38s-20.829-38.56-7.38-56.085l132-172c16.012-20.863 47.454-20.863 63.465 0l132 172c13.45 17.526 10.146 42.636-7.38 56.085-17.525 13.45-42.635 10.146-56.084-7.38L552 269.823V704c0 22.091-17.909 40-40 40s-40-17.909-40-40V269.822zM832 512c0-22.091 17.909-40 40-40s40 17.909 40 40v288c0 61.856-50.144 112-112 112H224c-61.856 0-112-50.144-112-112V512c0-22.091 17.909-40 40-40s40 17.909 40 40v288c0 17.673 14.327 32 32 32h576c17.673 0 32-14.327 32-32V512z" /></svg>