<?xml version="1.0" standalone="no"?><!DOCTYPE svg PUBLIC "-//W3C//DTD SVG 1.1//EN" "http://www.w3.org/Graphics/SVG/1.1/DTD/svg11.dtd"><svg class="icon" width="200px" height="200.00px" viewBox="0 0 1024 1024" version="1.1" xmlns="http://www.w3.org/2000/svg"><path d="M516.266667 908.8c-204.8 0-375.466667-166.4-375.466667-375.466667s166.4-375.466667 375.466667-375.466666 375.466667 166.4 375.466666 375.466666-166.4 375.466667-375.466666 375.466667z m0-686.933333c-174.933333 0-315.733333 140.8-315.733334 315.733333S341.333333 853.333333 516.266667 853.333333s315.733333-140.8 315.733333-315.733333-140.8-315.733333-315.733333-315.733333z"  /><path d="M524.8 388.266667v187.733333c0 12.8-8.533333 21.333333-21.333333 21.333333h-4.266667c-12.8 0-21.333333-8.533333-21.333333-21.333333V388.266667c0-12.8 8.533333-21.333333 21.333333-21.333334h4.266667c12.8 0 21.333333 8.533333 21.333333 21.333334z"  /><path d="M627.2 597.333333h-123.733333c-12.8 0-21.333333-8.533333-21.333334-21.333333s8.533333-21.333333 21.333334-21.333333h123.733333c12.8 0 21.333333 8.533333 21.333333 21.333333s-8.533333 21.333333-21.333333 21.333333z"  /><path d="M226.133333 226.133333c38.4-34.133333 76.8-55.466667 123.733334-76.8-64-34.133333-149.333333-29.866667-209.066667 21.333334-64 59.733333-72.533333 153.6-29.866667 226.133333 25.6-64 59.733333-123.733333 115.2-170.666667zM840.533333 256c29.866667 38.4 55.466667 81.066667 72.533334 128 38.4-64 38.4-145.066667-12.8-204.8-55.466667-64-149.333333-81.066667-221.866667-38.4 59.733333 21.333333 115.2 64 162.133333 115.2z"  /></svg>