<?xml version="1.0" standalone="no"?><!DOCTYPE svg PUBLIC "-//W3C//DTD SVG 1.1//EN" "http://www.w3.org/Graphics/SVG/1.1/DTD/svg11.dtd"><svg class="icon" width="200px" height="200.00px" viewBox="0 0 1024 1024" version="1.1" xmlns="http://www.w3.org/2000/svg"><path d="M204.8 0h477.866667l273.066666 273.066667v614.4c0 75.093333-61.44 136.533333-136.533333 136.533333H204.8c-75.093333 0-136.533333-61.44-136.533333-136.533333V136.533333C68.266667 61.44 129.706667 0 204.8 0z m307.2 853.333333c150.186667 0 273.066667-122.88 273.066667-273.066666s-122.88-273.066667-273.066667-273.066667-273.066667 122.88-273.066667 273.066667 122.88 273.066667 273.066667 273.066666z m0-68.266666c-116.053333 0-204.8-88.746667-204.8-204.8s88.746667-204.8 204.8-204.8 204.8 88.746667 204.8 204.8-88.746667 204.8-204.8 204.8zM614.4 600.746667l6.826667-6.826667c6.826667-13.653333 6.826667-27.306667-6.826667-34.133333L484.693333 471.04s-6.826667-6.826667-13.653333-6.826667c-13.653333 0-27.306667 13.653333-27.306667 27.306667v170.666667c0 6.826667 0 13.653333 6.826667 13.653333 6.826667 13.653333 27.306667 13.653333 40.96 6.826667L614.4 600.746667z" fill="#777777" /><path d="M682.666667 0l273.066666 273.066667h-204.8c-40.96 0-68.266667-27.306667-68.266666-68.266667V0z" fill="#e0e0e0" /></svg>