<?xml version="1.0" standalone="no"?><!DOCTYPE svg PUBLIC "-//W3C//DTD SVG 1.1//EN" "http://www.w3.org/Graphics/SVG/1.1/DTD/svg11.dtd"><svg class="icon" width="200px" height="200.00px" viewBox="0 0 1024 1024" version="1.1" xmlns="http://www.w3.org/2000/svg"><path d="M946.176 813.44l-299.904-520.512c-4.032-6.976-6.208-14.912-6.208-23.04L640.448 128l96 0c17.664 0 32-14.336 32-32S754.112 64 736.448 64l-128 0c-17.664 0-32 14.336-32 32l-0.64 179.328c0 15.872 4.16 31.424 12.16 45.184 0 0 55.04 95.424 118.272 204.928-191.552-30.272-326.976 124.544-453.824 5.504 63.168-108.224 118.336-202.816 118.336-202.816C378.688 314.432 382.848 298.88 382.848 283.008L384.448 96c0-17.664-14.336-32-32-32l-128 0c-17.664 0-32 14.336-32 32S206.72 128 224.448 128l96 0L318.592 278.208c0 8.128-2.112 16.064-6.208 23.04L12.992 813.44c-17.344 30.72-17.344 67.2 0 97.92C31.04 941.44 62.592 960 97.92 960l763.392 0c35.328 0 67.52-18.56 84.864-48.64C964.16 880.64 964.16 844.16 946.176 813.44z" /></svg>