<?xml version="1.0" standalone="no"?><!DOCTYPE svg PUBLIC "-//W3C//DTD SVG 1.1//EN" "http://www.w3.org/Graphics/SVG/1.1/DTD/svg11.dtd"><svg class="icon" width="200px" height="200.00px" viewBox="0 0 1024 1024" version="1.1" xmlns="http://www.w3.org/2000/svg"><path d="M601.9 414c-38.1 0-68.9-30.9-68.9-68.9V64H209.9c-38.1 0-68.9 30.9-68.9 68.9v758.2c0 38.1 30.9 68.9 68.9 68.9h604.2c38.1 0 68.9-30.9 68.9-68.9V414H601.9zM199.2 306.1c-4.9-11.4-7.2-22.4-7.2-33.5 0-19.5 7.3-37.5 20.7-50.4 13.9-13.5 33-20.5 53.8-19.8 10.9 0.3 21.7 3.1 31.6 8 9.9 4.9 19 11.9 26.6 20.6l9.1 10.5 9.1-10.5c15.2-17.5 36.4-27.9 58.2-28.6 20.8-0.7 39.9 6.4 53.8 19.8 13.4 13 20.8 30.9 20.8 50.5 0 11-2.3 22-7.2 33.5H388l-6.9-14.3c-2.4-5.1-7.5-8.3-13.5-8.6h-0.2c-5.8 0-11.1 3.5-13.5 8.6l-16.1 32.6-21.1-44.2c-2.7-5.6-7.9-9.3-13.7-9.5h-0.6c-5.4 0-10.3 2.7-13.1 7.3l-17.7 28.1h-72.4z m15.7 27.3h71.9l14.3-22.8 22.4 46.9c2.7 5.6 8.2 9.1 14.5 9.1 6.3 0 11.8-3.5 14.4-9.2l15.2-30.8 2.8 6h83c-21.6 30.4-57.6 62.6-102.5 102.8l-12.2 10.7c-2.8 2.5-7 2.5-9.8 0l-12.2-10.7c-44.5-39.9-80.2-71.9-101.8-102z m482.8 413.3c-6.4 6.4-15.1 10.3-24.7 10.3H333.6c-23.3-21.8-21-46-7.3-59.7 6.4-6.4 15.1-10.3 24.7-10.3h339.4c23.4 21.8 21 46.1 7.3 59.7z m0-175c-6.4 6.4-15.1 10.3-24.7 10.3H333.6c-23.3-21.8-21-46-7.3-59.7 6.4-6.4 15.1-10.3 24.7-10.3h339.4c23.4 21.8 21 46.1 7.3 59.7zM872.5 319L628.3 74.8c-6.8-6.8-15.8-10.2-24.7-10.2h-0.6v210.5c0 38.1 30.9 68.9 68.9 68.9h210.8c0.1-9-3.3-18.1-10.2-25z" /></svg>