<?xml version="1.0" standalone="no"?><!DOCTYPE svg PUBLIC "-//W3C//DTD SVG 1.1//EN" "http://www.w3.org/Graphics/SVG/1.1/DTD/svg11.dtd"><svg class="icon" width="200px" height="200.00px" viewBox="0 0 1024 1024" version="1.1" xmlns="http://www.w3.org/2000/svg"><path d="M929.671498 464.647742a420.558412 420.558412 0 0 0-417.667498-372.686845l36.305913-35.019951a32.129038 32.129038 0 1 0-44.337673-46.264616l-88.352355 85.460442a32.129038 32.129038 0 0 0 0 45.300645l85.139451 88.031365a32.129038 32.129038 0 0 0 45.622635-44.658664l-27.309183-28.272153A356.623326 356.623326 0 0 1 773.207182 755.408039a32.129038 32.129038 0 1 0 47.228586 43.694693A420.879402 420.879402 0 0 0 929.671498 464.646742z m-372.686844 330.920095a32.129038 32.129038 0 1 0-44.658664 46.265616l27.630173 27.309182a356.623326 356.623326 0 0 1-303.290922-583.770527 32.129038 32.129038 0 1 0-50.1185-41.123769 421.201393 421.201393 0 0 0 323.851307 689.149373c13.172606 0 26.666202 0 40.160798-2.247933l-36.304913 38.231856a32.129038 32.129038 0 0 0 46.264615 44.658663l85.139451-88.031365a32.129038 32.129038 0 0 0 0-45.300644z" /></svg>