<?xml version="1.0" standalone="no"?><!DOCTYPE svg PUBLIC "-//W3C//DTD SVG 1.1//EN" "http://www.w3.org/Graphics/SVG/1.1/DTD/svg11.dtd"><svg class="icon" width="200px" height="200.00px" viewBox="0 0 1024 1024" version="1.1" xmlns="http://www.w3.org/2000/svg"><path d="M640 42.7H170.7c-23.6 0-42.7 19.1-42.7 42.7v853.3c0 23.6 19.1 42.7 42.7 42.7h682.7c23.6 0 42.7-19.1 42.7-42.7v-640C796 198.7 740 142.6 640 42.7zM499.2 853.3c-23.6 0-42.7-19.1-42.7-42.7s19.1-42.7 42.7-42.7 42.7 19.1 42.7 42.7-19.1 42.7-42.7 42.7z m88-239.3c-26.5 13.5-42.7 23.9-48.4 31.1-9.6 11.1-18.3 27.2-18.2 37.6 0.1 10.9 0 42.7 0 42.7h-51.2v-42.7c0-36.2 8.7-48.5 17.4-62.9 7.7-11.1 19-21.5 34-31.1 33.8-19.3 54.2-31.8 61.5-37.6 22.2-18.8 33.3-41.9 33.3-69.4 0-38.6-17.4-65.6-52.1-81-15.4-6.8-32.5-10.1-51.3-10.1-49.2 0-83.4 22.7-102.7 68l-9.4 28.2c-1 3.9-1.7 8.2-2.2 13l-56.4-12.3c11.1-69.4 45.1-115 102-136.7 21.7-8.7 46-13 73-13 54 0 96.9 16.4 128.7 49.2l15.2 18.1c14 21.7 21.5 47 22.4 75.9-0.1 54.9-32 99.2-95.6 133zM640 298.7V128l170.7 170.7H640z" /></svg>