<?xml version="1.0" standalone="no"?><!DOCTYPE svg PUBLIC "-//W3C//DTD SVG 1.1//EN" "http://www.w3.org/Graphics/SVG/1.1/DTD/svg11.dtd"><svg class="icon" width="200px" height="200.00px" viewBox="0 0 1024 1024" version="1.1" xmlns="http://www.w3.org/2000/svg"><path d="M927.68 698.912c0-0.576 0.32-1.056 0.32-1.664V132.928C928 77.28 883.552 32 828.928 32H195.04C140.448 32 96 77.28 96 132.928v758.144C96 946.72 140.448 992 195.04 992h480.032a31.872 31.872 0 0 0 20.96-7.84l153.856-133.632a32 32 0 1 0-41.92-48.32L704 892.512v-119.552c0-20.384 15.712-36.96 35.072-36.96h157.632a32 32 0 0 0 32-32c-0.032-1.792-0.768-3.36-1.024-5.088zM640 772.928V928H195.04C175.712 928 160 911.424 160 891.072V132.928C160 112.576 175.712 96 195.04 96h633.888C848.288 96 864 112.576 864 132.928V672h-124.928C684.448 672 640 717.28 640 772.928z"  /><path d="M731.36 288h-5.216c-9.536 0-17.504 4.192-23.84 12.576-22.56 40.768-50.464 95.296-83.712 163.52l-70.272-141.376C539.968 299.552 528.384 288 513.632 288h-7.808c-10.112 0-18.656 5.056-25.6 15.168-36.736 69.408-64.032 123.04-81.984 160.928l-70.272-141.376C319.904 299.552 308.32 288 293.312 288h-6.944l-6.528 1.728c-15.872 8.096-23.84 17.632-23.84 28.64v7.808l0.864 5.216c43.68 92.256 77.792 162.208 102.368 209.92 9.824 23.136 21.408 34.688 34.688 34.688h6.08c8.96 0 17.344-4.192 25.152-12.576l83.264-164.384h0.864c30.368 63.904 51.776 107.712 64.192 131.424 12.736 30.368 26.336 45.536 40.8 45.536h6.08c9.824 0 18.784-5.056 26.88-15.168l116.256-231.168v-10.432l-0.864-3.456c-9.856-18.528-20.256-27.776-31.264-27.776z"  /></svg>