<?xml version="1.0" standalone="no"?><!DOCTYPE svg PUBLIC "-//W3C//DTD SVG 1.1//EN" "http://www.w3.org/Graphics/SVG/1.1/DTD/svg11.dtd"><svg class="icon" width="200px" height="200.00px" viewBox="0 0 1024 1024" version="1.1" xmlns="http://www.w3.org/2000/svg"><path d="M184.319891 150.186466v791.892278h655.359126V150.186466H184.319891zM844.116344 68.266576c42.66661 0 77.34603 34.338088 77.482564 76.731631v802.268797c0 42.393543-34.611154 76.731631-77.414297 76.731631H179.814297A77.004697 77.004697 0 0 1 102.4 947.267004V144.998207C102.4 102.604663 137.011154 68.266576 179.814297 68.266576h664.233781z"  /><path d="M348.159672 149.776867V314.026248a82.807356 82.807356 0 0 1 98.235603-2.59413V149.776867H348.159672z m50.312467 228.010363a2.047997 2.047997 0 0 1 0.409599 0.477866l-43.144476 35.839952A54.613261 54.613261 0 0 1 266.239782 372.052837V67.856976h262.075383v301.738265a54.613261 54.613261 0 0 1-89.770547 41.84741l-39.526347-33.177555 0.4096-0.477866-0.477866 0.409599-0.477866-0.409599z"  /><path d="M111.547721 787.318417c0-20.479973 16.588778-37.068751 37.000484-37.068751h590.232813a37.068751 37.068751 0 1 1 0 74.069235H148.548205a37.068751 37.068751 0 0 1-37.000484-37.000484z"  /></svg>