<?xml version="1.0" standalone="no"?><!DOCTYPE svg PUBLIC "-//W3C//DTD SVG 1.1//EN" "http://www.w3.org/Graphics/SVG/1.1/DTD/svg11.dtd"><svg class="icon" width="200px" height="200.00px" viewBox="0 0 1024 1024" version="1.1" xmlns="http://www.w3.org/2000/svg"><path d="M204.8 0h477.866667l273.066666 273.066667v614.4c0 75.093333-61.44 136.533333-136.533333 136.533333H204.8c-75.093333 0-136.533333-61.44-136.533333-136.533333V136.533333C68.266667 61.44 129.706667 0 204.8 0z m464.213333 375.466667l-232.106666 61.44c-27.306667 13.653333-47.786667 34.133333-47.786667 61.44v218.453333s-20.48-13.653333-54.613333-6.826667c-47.786667 6.826667-95.573333 47.786667-95.573334 88.746667 0 40.96 47.786667 61.44 95.573334 54.613333 54.613333-6.826667 95.573333-40.96 95.573333-81.92V559.786667c0-13.653333 27.306667-27.306667 27.306667-27.306667L655.36 477.866667s20.48-6.826667 20.48 13.653333v170.666667s-20.48-13.653333-54.613333-6.826667c-54.613333 6.826667-95.573333 40.96-95.573334 81.92s47.786667 68.266667 95.573334 61.44 95.573333-40.96 95.573333-81.92V409.6c0-27.306667-27.306667-40.96-47.786667-34.133333z" fill="#777777" /><path d="M682.666667 0l273.066666 273.066667h-204.8c-40.96 0-68.266667-27.306667-68.266666-68.266667V0z" fill="#e0e0e0" /></svg>