<?xml version="1.0" standalone="no"?><!DOCTYPE svg PUBLIC "-//W3C//DTD SVG 1.1//EN" "http://www.w3.org/Graphics/SVG/1.1/DTD/svg11.dtd"><svg class="icon" width="200px" height="200.00px" viewBox="0 0 1024 1024" version="1.1" xmlns="http://www.w3.org/2000/svg"><path d="M143.4 903.2v5.2c0.2 9.3 2.1 18.2 2.8 27.4h0.6c1.5 14.4 13.7 25.4 28.2 25.4s26.7-11 28.2-25.4h0.9c-0.8-9.8-2.9-19.2-2.9-29.1 0-84.7 33.6-165.9 93.5-225.8 59.9-59.9 141.1-93.5 225.8-93.5l29.1-2.9c130.3-14.6 232.1-124 232.1-258.3C781.7 182 664.8 65.1 520.6 65l-0.1-0.1c-69.3 0-135.8 27.5-184.8 76.5s-76.5 115.5-76.5 184.8c0 97.7 54.3 182 133.9 226.8-144.3 52-248.3 188.3-249.7 350.2z m173.9-577.1c0-112.3 91-203.3 203.3-203.3s203.3 91 203.3 203.3c0 112.3-91 203.3-203.3 203.3s-203.3-91-203.3-203.3z"  /><path d="M564.6 948.3c5 4.8 11.4 7.2 17.8 7.2 6.5 0 12.9-2.4 17.8-7.2l271.7-265.1c9.8-9.6 9.8-25.2 0-34.7-9.8-9.6-25.8-9.6-35.6 0L582.4 896.2 452.2 769.1c-9.8-9.6-25.7-9.6-35.6 0-4.8 4.7-7.2 10.9-7.3 17v0.6c0.1 6.2 2.5 12.3 7.3 17l148 144.6z"  /></svg>