<?xml version="1.0" standalone="no"?><!DOCTYPE svg PUBLIC "-//W3C//DTD SVG 1.1//EN" "http://www.w3.org/Graphics/SVG/1.1/DTD/svg11.dtd"><svg class="icon" width="200px" height="200.00px" viewBox="0 0 1024 1024" version="1.1" xmlns="http://www.w3.org/2000/svg"><path d="M738.67909761 147.498335H95.64957448A84.98290781 84.98290781 0 0 0 10.66666667 232.48124281v674.53584938A84.98290781 84.98290781 0 0 0 95.64957448 992h643.02952313A84.98290781 84.98290781 0 0 0 823.63004042 907.01709219V232.48124281a84.98290781 84.98290781 0 0 0-84.95094281-84.98290781zM157.70329292 323.82508344A23.32341844 23.32341844 0 0 1 180.99474636 300.501665h212.84084344a23.32341844 23.32341844 0 0 1 23.32341843 23.32341844v29.83351781a23.32341844 23.32341844 0 0 1-23.32341843 23.32341844H180.99474636A23.32341844 23.32341844 0 0 1 157.70329292 353.66925594z m0 230.99667a23.32341844 23.32341844 0 0 1 23.32341844-23.32341844H504.83758761a23.32341844 23.32341844 0 0 1 23.33407312 23.33407313v29.83351875a23.32341844 23.32341844 0 0 1-23.33407312 23.33407312H180.99474636A23.32341844 23.32341844 0 0 1 157.70329292 584.67658156zM675.20828698 815.66259688a23.32341844 23.32341844 0 0 1-23.32341844 23.32341843H180.99474636A23.32341844 23.32341844 0 0 1 157.70329292 815.67325156v-31.34650312a23.32341844 23.32341844 0 0 1 23.32341844-23.32341844h470.81553844a23.32341844 23.32341844 0 0 1 23.32341843 23.32341844z"  /><path d="M896.81805448 32H379.8990748c-40.78668187 0-73.84861219 34.38313031-73.84861219 76.8v76.8h73.84861219c0-42.41686969 33.02996625-76.8 73.84861312-76.8h369.22175344c40.78668187 0 73.84861219 34.38313031 73.84861312 76.8v537.6c0 42.22508344-23.23818 76.49101031-73.18801406 76.78934531v76.81065469h73.18801406c40.81864594 0 73.84861219-34.38313031 73.84861219-76.8V108.8C970.66666667 66.38313031 937.63670042 32 896.81805448 32z"  /></svg>