<?xml version="1.0" standalone="no"?><!DOCTYPE svg PUBLIC "-//W3C//DTD SVG 1.1//EN" "http://www.w3.org/Graphics/SVG/1.1/DTD/svg11.dtd"><svg class="icon" width="200px" height="200.00px" viewBox="0 0 1024 1024" version="1.1" xmlns="http://www.w3.org/2000/svg"><path d="M279.15323 958.059228l217.110799-363.160177-141.539436 0L354.724593 63.957829l-151.123938 0 0 530.943021L62.057421 594.900849 279.15323 958.059228 279.15323 958.059228zM570.078783 64.464885l386.443791 0 0 108.976114L570.078583 173.440999 570.078783 64.464885 570.078783 64.464885zM570.078783 369.594007 878.364965 369.594007l0-108.974515L570.078783 260.619492 570.078783 369.594007zM570.078783 565.747016l230.128573 0 0-108.976114L570.078783 456.770901 570.078783 565.747016 570.078783 565.747016zM570.078783 761.904621l151.972163 0L722.050945 652.930305l-151.972163 0L570.078783 761.904621zM570.078783 958.059228l73.813355 0 0-108.974315-73.813355 0L570.078783 958.059228z" /></svg>